<svg xmlns="http://www.w3.org/2000/svg" viewBox="0 0 800 520" role="img" aria-label="訂製帆布袋">
  <defs>
    <linearGradient id="bg" x1="0" y1="0" x2="800" y2="520" gradientUnits="userSpaceOnUse">
      <stop stop-color="#090e22"/>
      <stop offset="0.5" stop-color="#123044"/>
      <stop offset="1" stop-color="#332158"/>
    </linearGradient>
    <linearGradient id="bag" x1="268" y1="130" x2="546" y2="462" gradientUnits="userSpaceOnUse">
      <stop stop-color="#fff6e7"/>
      <stop offset="1" stop-color="#d5c4a3"/>
    </linearGradient>
    <linearGradient id="label" x1="324" y1="244" x2="480" y2="352" gradientUnits="userSpaceOnUse">
      <stop stop-color="#ff8bcf"/>
      <stop offset="1" stop-color="#7f6cff"/>
    </linearGradient>
  </defs>
  <rect width="800" height="520" fill="url(#bg)"/>
  <circle cx="152" cy="134" r="82" fill="#15d1c4" opacity="0.15"/>
  <circle cx="648" cy="402" r="118" fill="#ff8bcf" opacity="0.12"/>
  <path d="M284 184c8-58 50-96 116-96s108 38 116 96" fill="none" stroke="#e7d7b9" stroke-width="28" stroke-linecap="round"/>
  <path d="M236 174h328l48 278H188l48-278Z" fill="url(#bag)"/>
  <path d="M236 174h328l10 60H226l10-60Z" fill="#f9edd8"/>
  <path d="M292 184c5-58 42-94 108-94s103 36 108 94" fill="none" stroke="#473f54" stroke-width="12" stroke-linecap="round" opacity="0.35"/>
  <rect x="306" y="254" width="188" height="112" rx="18" fill="url(#label)"/>
  <path d="M352 336v-56h33c17 0 28 11 28 28s-11 28-28 28h-33Zm18-15h13c7 0 12-5 12-13s-5-13-12-13h-13v26Zm64 15v-56h20v56h-20Z" fill="#fff"/>
  <path d="M188 452h424l-10 34H198l-10-34Z" fill="#b59f78" opacity="0.55"/>
</svg>
