<svg xmlns="http://www.w3.org/2000/svg" viewBox="0 0 800 520" role="img" aria-label="活動手冊">
  <defs>
    <linearGradient id="bg" x1="0" y1="0" x2="800" y2="520" gradientUnits="userSpaceOnUse">
      <stop stop-color="#071320"/>
      <stop offset="0.52" stop-color="#1d2457"/>
      <stop offset="1" stop-color="#40205c"/>
    </linearGradient>
    <linearGradient id="cover" x1="230" y1="82" x2="574" y2="456" gradientUnits="userSpaceOnUse">
      <stop stop-color="#ff8bcf"/>
      <stop offset="0.55" stop-color="#7f6cff"/>
      <stop offset="1" stop-color="#15d1c4"/>
    </linearGradient>
  </defs>
  <rect width="800" height="520" fill="url(#bg)"/>
  <path d="M172 116h318c44 0 80 36 80 80v244H252c-44 0-80-36-80-80V116Z" fill="#0b1028" opacity="0.5"/>
  <path d="M216 82h326c40 0 72 32 72 72v284H288c-40 0-72-32-72-72V82Z" fill="#f3f8ff"/>
  <path d="M256 82h326c40 0 72 32 72 72v284H328c-40 0-72-32-72-72V82Z" fill="url(#cover)"/>
  <path d="M256 82h58v356h-58V82Z" fill="#090d24" opacity="0.24"/>
  <path d="M348 154h220v18H348v-18Zm0 42h178v16H348v-16Zm0 40h210v16H348v-16Z" fill="#ffffff" opacity="0.86"/>
  <rect x="348" y="302" width="176" height="74" rx="14" fill="#ffffff" opacity="0.2"/>
  <path d="M382 352v-36h20c11 0 18 7.4 18 18s-7 18-18 18h-20Zm13-10h6c4.2 0 7-2.7 7-8s-2.8-8-7-8h-6v16Zm41 10v-36h14v36h-14Zm30 0v-36h29v10h-16v5h14v9h-14v12h-13Z" fill="#fff"/>
  <path d="M614 438H288c-26 0-48-21-48-48V116" fill="none" stroke="#ffffff" stroke-width="10" stroke-linecap="round" opacity="0.58"/>
</svg>
