<svg xmlns="http://www.w3.org/2000/svg" viewBox="0 0 800 520" role="img" aria-label="雲港抱枕">
  <defs>
    <linearGradient id="bg" x1="0" y1="0" x2="800" y2="520" gradientUnits="userSpaceOnUse">
      <stop stop-color="#0c1028"/>
      <stop offset="0.5" stop-color="#2a1f58"/>
      <stop offset="1" stop-color="#143f54"/>
    </linearGradient>
    <linearGradient id="pillow" x1="230" y1="96" x2="590" y2="440" gradientUnits="userSpaceOnUse">
      <stop stop-color="#fff2fb"/>
      <stop offset="0.5" stop-color="#eadcff"/>
      <stop offset="1" stop-color="#bfc8ff"/>
    </linearGradient>
    <linearGradient id="mark" x1="302" y1="186" x2="500" y2="344" gradientUnits="userSpaceOnUse">
      <stop stop-color="#ff8bcf"/>
      <stop offset="1" stop-color="#7f6cff"/>
    </linearGradient>
  </defs>
  <rect width="800" height="520" fill="url(#bg)"/>
  <circle cx="150" cy="128" r="86" fill="#15d1c4" opacity="0.14"/>
  <circle cx="656" cy="406" r="118" fill="#ff8bcf" opacity="0.14"/>
  <path d="M210 160c0-46 34-80 80-80h220c46 0 80 34 80 80v200c0 46-34 80-80 80H290c-46 0-80-34-80-80V160Z" fill="url(#pillow)"/>
  <path d="M247 142c24-21 54-31 90-31h126c36 0 66 10 90 31-28-10-61-15-99-15H346c-38 0-71 5-99 15Z" fill="#ffffff" opacity="0.45"/>
  <path d="M245 378c28 10 61 15 99 15h112c38 0 71-5 99-15-24 21-54 31-90 31H335c-36 0-66-10-90-31Z" fill="#7f6cff" opacity="0.16"/>
  <path d="M232 194c18 16 28 38 28 66s-10 50-28 66V194Z" fill="#ff8bcf" opacity="0.16"/>
  <path d="M568 194c-18 16-28 38-28 66s10 50 28 66V194Z" fill="#15d1c4" opacity="0.14"/>
  <rect x="314" y="194" width="172" height="132" rx="28" fill="url(#mark)"/>
  <path d="M358 290v-60h35c18 0 30 12 30 30s-12 30-30 30h-35Zm19-16h14c8 0 13-5 13-14s-5-14-13-14h-14v28Zm67 16v-60h20v60h-20Z" fill="#fff"/>
  <path d="M270 438h260c24 0 44 12 56 32H214c12-20 32-32 56-32Z" fill="#06091b" opacity="0.22"/>
</svg>
