<svg xmlns="http://www.w3.org/2000/svg" viewBox="0 0 240 240" role="img" aria-label="雲港商行攤主頭像">
  <defs>
    <linearGradient id="avatar-bg" x1="32" y1="18" x2="210" y2="220" gradientUnits="userSpaceOnUse">
      <stop stop-color="#ff8bcf"/>
      <stop offset="0.48" stop-color="#7f6cff"/>
      <stop offset="1" stop-color="#15d1c4"/>
    </linearGradient>
    <linearGradient id="face" x1="76" y1="64" x2="164" y2="170" gradientUnits="userSpaceOnUse">
      <stop stop-color="#ffe2c6"/>
      <stop offset="1" stop-color="#f0b18c"/>
    </linearGradient>
    <linearGradient id="shirt" x1="54" y1="166" x2="186" y2="232" gradientUnits="userSpaceOnUse">
      <stop stop-color="#101733"/>
      <stop offset="1" stop-color="#27306e"/>
    </linearGradient>
  </defs>
  <rect width="240" height="240" rx="120" fill="#070b1f"/>
  <circle cx="120" cy="120" r="110" fill="url(#avatar-bg)"/>
  <circle cx="66" cy="58" r="28" fill="#fff" opacity="0.18"/>
  <circle cx="188" cy="186" r="38" fill="#15d1c4" opacity="0.16"/>
  <path d="M59 228c8-42 31-66 61-66s53 24 61 66H59Z" fill="url(#shirt)"/>
  <path d="M91 159c4 18 14 29 29 29s25-11 29-29v-16H91v16Z" fill="#e8a47f"/>
  <path d="M76 96c0-34 18-58 44-58s44 24 44 58v26c0 31-18 55-44 55s-44-24-44-55V96Z" fill="url(#face)"/>
  <path d="M76 103c-5-34 12-72 45-72 28 0 51 21 51 57 0 12-2 22-5 31l-13-28c-22 0-44-7-61-21-8 7-13 18-17 33Z" fill="#24162c"/>
  <path d="M89 118c0-5 4-9 9-9s9 4 9 9-4 9-9 9-9-4-9-9Zm44 0c0-5 4-9 9-9s9 4 9 9-4 9-9 9-9-4-9-9Z" fill="#211527"/>
  <path d="M104 145c9 8 23 8 32 0" fill="none" stroke="#8b4b4f" stroke-width="6" stroke-linecap="round"/>
  <path d="M84 96c8-20 25-32 48-34" fill="none" stroke="#ffffff" stroke-width="7" stroke-linecap="round" opacity="0.16"/>
  <path d="M84 184l36 28 36-28 18 44H66l18-44Z" fill="#ffffff" opacity="0.1"/>
</svg>
