<svg xmlns="http://www.w3.org/2000/svg" viewBox="0 0 800 800" role="img" aria-labelledby="title desc">
  <title id="title">Applejack 9-inch Lying Plush</title>
  <desc id="desc">Stylized product placeholder for an Applejack 9-inch lying plush.</desc>
  <defs>
    <linearGradient id="bg" x1="0" y1="0" x2="1" y2="1">
      <stop offset="0" stop-color="#fff1c4"/>
      <stop offset="1" stop-color="#ee9f42"/>
    </linearGradient>
    <linearGradient id="body" x1="0" y1="0" x2="1" y2="1">
      <stop offset="0" stop-color="#ffc96c"/>
      <stop offset="1" stop-color="#de8730"/>
    </linearGradient>
  </defs>
  <rect width="800" height="800" rx="88" fill="url(#bg)"/>
  <ellipse cx="400" cy="620" rx="270" ry="46" fill="#4f260d" opacity=".2"/>
  <ellipse cx="430" cy="450" rx="245" ry="128" fill="url(#body)"/>
  <circle cx="240" cy="400" r="126" fill="#f8b95a"/>
  <path d="M168 306 210 210 270 315Z" fill="#f8b95a"/>
  <path d="M238 300 306 218 320 342Z" fill="#f8b95a"/>
  <path d="M150 470c-44 24-70 62-57 88 16 33 87 22 142-19Z" fill="#d98734"/>
  <path d="M520 342c75 16 138 56 178 113-50 14-124 3-190-31Z" fill="#f5cf5e"/>
  <path d="M524 366c57 12 107 38 141 76-42 8-96 0-144-25Z" fill="#ffe88b"/>
  <path d="M514 393c43 10 81 28 107 53-34 6-75 0-109-19Z" fill="#e1ae33"/>
  <circle cx="205" cy="382" r="17" fill="#3f1f0b"/>
  <circle cx="210" cy="376" r="6" fill="#fff"/>
  <path d="M130 426q54 38 120 0" fill="none" stroke="#a76226" stroke-width="12" stroke-linecap="round"/>
  <path d="M116 302c42-38 160-61 247-32-36 29-177 48-247 32Z" fill="#9c6a2d"/>
  <path d="M173 270c31-80 127-89 156-17-45 22-104 27-156 17Z" fill="#c98f42"/>
  <text x="400" y="704" fill="#ffffff" font-family="Arial, sans-serif" font-size="42" font-weight="800" text-anchor="middle">Applejack</text>
  <text x="400" y="748" fill="#ffffff" font-family="Arial, sans-serif" font-size="26" font-weight="700" text-anchor="middle">9-inch Lying Plush</text>
</svg>
