<svg xmlns="http://www.w3.org/2000/svg" viewBox="0 0 800 800" role="img" aria-labelledby="title desc">
  <title id="title">Pinkie Pie 9-inch Lying Plush</title>
  <desc id="desc">Stylized product placeholder for a Pinkie Pie 9-inch lying plush.</desc>
  <defs>
    <linearGradient id="bg" x1="0" y1="0" x2="1" y2="1">
      <stop offset="0" stop-color="#ffd5ee"/>
      <stop offset="1" stop-color="#f06ebd"/>
    </linearGradient>
    <linearGradient id="body" x1="0" y1="0" x2="1" y2="1">
      <stop offset="0" stop-color="#ffb0db"/>
      <stop offset="1" stop-color="#ec6db6"/>
    </linearGradient>
  </defs>
  <rect width="800" height="800" rx="88" fill="url(#bg)"/>
  <ellipse cx="400" cy="620" rx="270" ry="46" fill="#5c1641" opacity=".2"/>
  <ellipse cx="430" cy="450" rx="245" ry="128" fill="url(#body)"/>
  <circle cx="240" cy="400" r="126" fill="#ffa3d1"/>
  <path d="M168 306 210 210 270 315Z" fill="#ffa3d1"/>
  <path d="M238 300 306 218 320 342Z" fill="#ffa3d1"/>
  <path d="M150 470c-44 24-70 62-57 88 16 33 87 22 142-19Z" fill="#e96ab4"/>
  <path d="M516 340c76 13 140 54 179 113-50 14-122 4-189-28Z" fill="#c82081"/>
  <path d="M516 362c57 12 107 38 141 77-40 8-94-1-142-25Z" fill="#df3a98"/>
  <path d="M507 392c42 10 79 28 106 54-35 5-76-2-109-20Z" fill="#b90f72"/>
  <circle cx="205" cy="382" r="17" fill="#461034"/>
  <circle cx="210" cy="376" r="6" fill="#fff"/>
  <path d="M130 426q54 38 120 0" fill="none" stroke="#c94b91" stroke-width="12" stroke-linecap="round"/>
  <circle cx="187" cy="290" r="54" fill="#c82081"/>
  <circle cx="254" cy="270" r="64" fill="#df3a98"/>
  <circle cx="310" cy="318" r="54" fill="#c82081"/>
  <path d="M170 318c48 25 101 25 158-1-24 50-112 61-158 1Z" fill="#df3a98"/>
  <text x="400" y="704" fill="#ffffff" font-family="Arial, sans-serif" font-size="42" font-weight="800" text-anchor="middle">Pinkie Pie</text>
  <text x="400" y="748" fill="#ffffff" font-family="Arial, sans-serif" font-size="26" font-weight="700" text-anchor="middle">9-inch Lying Plush</text>
</svg>
