<svg xmlns="http://www.w3.org/2000/svg" viewBox="0 0 800 800" role="img" aria-labelledby="title desc">
  <title id="title">Rainbow Dash 9-inch Lying Plush</title>
  <desc id="desc">Stylized product placeholder for a Rainbow Dash 9-inch lying plush.</desc>
  <defs>
    <linearGradient id="bg" x1="0" y1="0" x2="1" y2="1">
      <stop offset="0" stop-color="#d9fbff"/>
      <stop offset="1" stop-color="#3e8bdf"/>
    </linearGradient>
    <linearGradient id="body" x1="0" y1="0" x2="1" y2="1">
      <stop offset="0" stop-color="#9deaff"/>
      <stop offset="1" stop-color="#3fb6e8"/>
    </linearGradient>
  </defs>
  <rect width="800" height="800" rx="88" fill="url(#bg)"/>
  <ellipse cx="400" cy="620" rx="270" ry="46" fill="#07324d" opacity=".2"/>
  <ellipse cx="430" cy="450" rx="245" ry="128" fill="url(#body)"/>
  <circle cx="240" cy="400" r="126" fill="#80dcf7"/>
  <path d="M168 306 210 210 270 315Z" fill="#80dcf7"/>
  <path d="M238 300 306 218 320 342Z" fill="#80dcf7"/>
  <path d="M150 470c-44 24-70 62-57 88 16 33 87 22 142-19Z" fill="#59bfe4"/>
  <path d="M514 342c75 16 139 55 176 113-49 14-121 4-187-30Z" fill="#db2533"/>
  <path d="M516 360c55 12 104 39 136 78-40 6-91-3-135-28Z" fill="#ffb32a"/>
  <path d="M517 384c42 10 78 29 103 55-33 3-70-5-104-22Z" fill="#2ebd58"/>
  <path d="M515 410c31 8 57 21 76 39-25 4-54-1-78-13Z" fill="#3556d9"/>
  <circle cx="205" cy="382" r="17" fill="#092b3b"/>
  <circle cx="210" cy="376" r="6" fill="#fff"/>
  <path d="M130 426q54 38 120 0" fill="none" stroke="#1f85b5" stroke-width="12" stroke-linecap="round"/>
  <path d="M160 314c44-40 96-61 160-67-43 29-78 63-107 103Z" fill="#db2533"/>
  <path d="M184 306c46-26 91-39 137-39-39 22-70 48-95 79Z" fill="#ffdb3d"/>
  <text x="400" y="704" fill="#ffffff" font-family="Arial, sans-serif" font-size="42" font-weight="800" text-anchor="middle">Rainbow Dash</text>
  <text x="400" y="748" fill="#ffffff" font-family="Arial, sans-serif" font-size="26" font-weight="700" text-anchor="middle">9-inch Lying Plush</text>
</svg>
