<svg xmlns="http://www.w3.org/2000/svg" viewBox="0 0 800 800" role="img" aria-labelledby="title desc">
  <title id="title">Rarity 9-inch Lying Plush</title>
  <desc id="desc">Stylized product placeholder for a Rarity 9-inch lying plush.</desc>
  <defs>
    <linearGradient id="bg" x1="0" y1="0" x2="1" y2="1">
      <stop offset="0" stop-color="#ffffff"/>
      <stop offset="1" stop-color="#b9d3ff"/>
    </linearGradient>
    <linearGradient id="body" x1="0" y1="0" x2="1" y2="1">
      <stop offset="0" stop-color="#ffffff"/>
      <stop offset="1" stop-color="#dce8ff"/>
    </linearGradient>
  </defs>
  <rect width="800" height="800" rx="88" fill="url(#bg)"/>
  <ellipse cx="400" cy="620" rx="270" ry="46" fill="#23315b" opacity=".18"/>
  <ellipse cx="430" cy="450" rx="245" ry="128" fill="url(#body)"/>
  <circle cx="240" cy="400" r="126" fill="#ffffff"/>
  <path d="M168 306 210 210 270 315Z" fill="#ffffff"/>
  <path d="M238 300 306 218 320 342Z" fill="#ffffff"/>
  <path d="M150 470c-44 24-70 62-57 88 16 33 87 22 142-19Z" fill="#d7e0fb"/>
  <path d="M512 344c75 16 139 57 178 115-50 13-124 2-190-32Z" fill="#5d2d91"/>
  <path d="M525 362c56 14 105 40 139 78-41 8-95-1-142-26Z" fill="#7439ac"/>
  <path d="M515 394c42 11 79 29 106 56-35 4-76-4-109-22Z" fill="#4c2378"/>
  <circle cx="205" cy="382" r="17" fill="#20213a"/>
  <circle cx="210" cy="376" r="6" fill="#fff"/>
  <path d="M130 426q54 38 120 0" fill="none" stroke="#b8c7ea" stroke-width="12" stroke-linecap="round"/>
  <path d="M188 308c38-70 107-81 141-48 26 26 12 74-46 98 22-34 14-57-16-62-25-4-48 6-79 12Z" fill="#5d2d91"/>
  <path d="M284 288c56-5 101 19 126 64-51-13-93-13-126 4 18-25 18-47 0-68Z" fill="#7439ac"/>
  <text x="400" y="704" fill="#ffffff" font-family="Arial, sans-serif" font-size="42" font-weight="800" text-anchor="middle">Rarity</text>
  <text x="400" y="748" fill="#ffffff" font-family="Arial, sans-serif" font-size="26" font-weight="700" text-anchor="middle">9-inch Lying Plush</text>
</svg>
