<svg xmlns="http://www.w3.org/2000/svg" viewBox="0 0 800 800" role="img" aria-labelledby="title desc">
  <title id="title">Twilight Sparkle 9-inch Lying Plush</title>
  <desc id="desc">Stylized product placeholder for a Twilight Sparkle 9-inch lying plush.</desc>
  <defs>
    <linearGradient id="bg" x1="0" y1="0" x2="1" y2="1">
      <stop offset="0" stop-color="#f3dcff"/>
      <stop offset="1" stop-color="#7d61c9"/>
    </linearGradient>
    <linearGradient id="body" x1="0" y1="0" x2="1" y2="1">
      <stop offset="0" stop-color="#c6a1f4"/>
      <stop offset="1" stop-color="#6f4fb8"/>
    </linearGradient>
  </defs>
  <rect width="800" height="800" rx="88" fill="url(#bg)"/>
  <ellipse cx="400" cy="620" rx="270" ry="46" fill="#2a1741" opacity=".22"/>
  <ellipse cx="430" cy="450" rx="245" ry="128" fill="url(#body)"/>
  <circle cx="240" cy="400" r="126" fill="#b88eea"/>
  <path d="M168 306 210 210 270 315Z" fill="#b88eea"/>
  <path d="M238 300 306 218 320 342Z" fill="#b88eea"/>
  <path d="M150 470c-44 24-70 62-57 88 16 33 87 22 142-19Z" fill="#9a72d0"/>
  <path d="M520 342c70 18 132 58 170 113-48 12-121 3-184-28Z" fill="#342454"/>
  <path d="M515 362c47 13 91 38 121 73-34 6-83-3-127-25Z" fill="#ff5aa9"/>
  <path d="M505 388c32 9 60 24 82 45-27 5-62-1-93-15Z" fill="#7c4ed8"/>
  <circle cx="205" cy="382" r="17" fill="#21142d"/>
  <circle cx="210" cy="376" r="6" fill="#fff"/>
  <path d="M130 426q54 38 120 0" fill="none" stroke="#5d3c88" stroke-width="12" stroke-linecap="round"/>
  <path d="M304 294c36-50 65-79 102-112-10 53-27 104-58 151Z" fill="#5a327f"/>
  <path d="M325 292c23-34 46-58 73-82-8 35-21 68-42 98Z" fill="#ff5aa9"/>
  <text x="400" y="704" fill="#ffffff" font-family="Arial, sans-serif" font-size="42" font-weight="800" text-anchor="middle">Twilight Sparkle</text>
  <text x="400" y="748" fill="#ffffff" font-family="Arial, sans-serif" font-size="26" font-weight="700" text-anchor="middle">9-inch Lying Plush</text>
</svg>
